<svg version="1.1" id="Layer_1" xmlns="http://www.w3.org/2000/svg" xmlns:xlink="http://www.w3.org/1999/xlink" x="0px" y="0px"
	 width="100%" viewBox="0 0 2048 2048" enable-background="new 0 0 2048 2048" xml:space="preserve">
<path fill="#000000" opacity="1.000000" stroke="none" 
	d="
M1145.000000,2049.000000 
	C763.333313,2049.000000 382.166656,2049.000000 1.000000,2049.000000 
	C1.000000,1366.333374 1.000000,683.666687 1.000000,1.000000 
	C683.666687,1.000000 1366.333374,1.000000 2049.000000,1.000000 
	C2049.000000,683.666687 2049.000000,1366.333374 2049.000000,2049.000000 
	C1747.833374,2049.000000 1446.666626,2049.000000 1145.000000,2049.000000 
M973.978943,1300.030029 
	C973.985962,1124.247925 973.993225,948.465942 973.992676,772.683899 
	C973.992676,771.521790 973.883057,770.359741 973.740723,768.456909 
	C955.529175,761.232483 939.454712,750.592102 925.572144,736.910217 
	C912.561462,724.087463 902.457764,709.151489 894.693359,692.471375 
	C885.899719,673.580200 881.960571,653.712891 881.154358,633.166443 
	C880.860474,625.676208 881.701782,617.993591 883.145935,610.618225 
	C885.232239,599.962830 887.987976,589.398865 891.192078,579.022461 
	C892.392456,575.135315 892.541931,572.872437 889.461426,569.800781 
	C818.180176,498.722961 747.019409,427.524323 675.858521,356.325897 
	C674.751892,355.218750 673.922974,353.834045 672.836792,352.411743 
	C670.913025,354.449890 669.799377,355.691132 668.621948,356.868622 
	C478.067474,547.431946 287.546112,738.028442 96.872643,928.472656 
	C82.753181,942.575134 70.839134,957.853943 63.175217,976.397644 
	C56.881393,991.626282 54.798641,1007.650574 54.218719,1023.815552 
	C53.935226,1031.717651 55.652664,1039.763062 57.047226,1047.640503 
	C61.238770,1071.316528 71.677795,1092.057861 88.631142,1109.020508 
	C371.975464,1392.521240 655.418701,1675.922974 938.863831,1959.322754 
	C942.131897,1962.590454 945.559875,1965.737427 949.173889,1968.613159 
	C968.014160,1983.604370 989.561584,1992.504150 1013.408997,1994.777954 
	C1026.190186,1995.996582 1039.163818,1995.733521 1051.990723,1993.086426 
	C1075.126099,1988.311768 1095.813110,1978.498657 1112.462524,1961.863647 
	C1392.822998,1681.743164 1673.036621,1401.475464 1953.229492,1121.187012 
	C1959.636108,1114.778198 1965.896118,1108.112549 1971.403320,1100.936401 
	C1985.129395,1083.050049 1992.936646,1062.458618 1994.741943,1040.172729 
	C1996.080811,1023.644775 1995.372925,1007.034485 1990.216431,990.746460 
	C1984.542725,972.824341 1976.492065,956.218262 1963.310791,943.023926 
	C1679.087158,658.517151 1394.714111,374.159607 1110.179932,89.963387 
	C1102.414551,82.207176 1093.106445,75.577171 1083.552490,70.108192 
	C1054.706543,53.595795 1023.489258,50.986835 991.661072,58.363968 
	C970.003540,63.383743 951.087219,74.378670 935.213562,90.266243 
	C877.611572,147.918823 819.971191,205.532928 762.328796,263.145081 
	C760.917480,264.555695 759.314697,265.774719 757.303772,267.513184 
	C759.192200,269.117096 760.682373,270.214020 761.976807,271.506866 
	C791.928101,301.421875 821.858337,331.358032 851.792114,361.290588 
	C893.982117,403.478912 936.201965,445.637604 978.289246,487.928192 
	C980.891602,490.543182 982.978027,491.159393 986.419617,489.974609 
	C1000.149597,485.247955 1014.432678,483.237854 1028.863647,483.115875 
	C1042.318848,483.002136 1055.527710,485.175079 1068.611938,488.691925 
	C1101.716675,497.589844 1128.186890,516.221497 1148.533813,543.331848 
	C1164.885132,565.118469 1174.668335,590.026062 1176.759521,617.222534 
	C1178.184570,635.755249 1177.711060,654.492920 1171.207642,672.408142 
	C1169.405273,677.373413 1170.150757,680.932434 1174.303711,685.063171 
	C1243.192383,753.583191 1311.846558,822.338989 1380.552612,891.042786 
	C1381.376709,891.866821 1382.051636,893.027832 1383.043945,893.452271 
	C1384.546509,894.094971 1386.385986,894.789673 1387.873535,894.475220 
	C1392.952515,893.401550 1397.917847,891.804871 1402.966797,890.572754 
	C1421.624756,886.019653 1440.521362,885.869995 1459.243164,889.297974 
	C1476.602539,892.476440 1493.046509,898.594360 1508.402466,907.654114 
	C1525.943604,918.003235 1540.825439,931.274658 1552.723389,947.618652 
	C1562.726685,961.359924 1570.140381,976.523621 1575.173096,992.949036 
	C1581.275635,1012.866028 1582.158813,1032.981934 1580.055420,1053.469971 
	C1577.970581,1073.778198 1571.339355,1092.518799 1560.982056,1110.013062 
	C1546.321289,1134.775635 1526.236694,1153.847290 1500.663208,1167.036987 
	C1485.026489,1175.101685 1468.511963,1180.249512 1450.908203,1182.088379 
	C1434.371094,1183.815674 1417.985718,1183.617920 1401.748169,1179.966431 
	C1372.764648,1173.448608 1347.661743,1159.656006 1327.018188,1138.342407 
	C1314.332397,1125.244751 1304.139282,1110.271240 1297.017334,1093.300171 
	C1289.657104,1075.761108 1285.656250,1057.481323 1285.099121,1038.566406 
	C1284.544312,1019.732666 1287.710815,1001.375183 1294.718262,983.808838 
	C1296.311401,979.814758 1295.848022,977.108826 1292.599243,973.871582 
	C1228.376465,909.879089 1164.296509,845.743225 1100.181885,781.642273 
	C1098.851196,780.311951 1097.452881,779.049133 1095.000000,776.726135 
	C1095.000000,779.981201 1095.000000,781.731140 1095.000000,783.481018 
	C1095.000000,843.479004 1095.000000,903.477051 1095.000000,963.475037 
	C1095.000000,1076.304565 1095.018555,1189.134155 1094.912598,1301.963623 
	C1094.909302,1305.425415 1096.221802,1306.865845 1098.990356,1308.662720 
	C1108.960815,1315.133911 1119.334106,1321.275024 1128.218628,1329.065186 
	C1144.145264,1343.029785 1156.500977,1359.945557 1164.948364,1379.574585 
	C1173.921265,1400.424683 1178.762817,1422.038086 1176.916260,1444.789062 
	C1176.098267,1454.868652 1175.017334,1465.020752 1172.863281,1474.879395 
	C1167.745239,1498.302856 1156.500244,1518.845825 1140.668945,1536.682617 
	C1125.802124,1553.432983 1108.214478,1566.593628 1087.358643,1575.418091 
	C1072.300537,1581.789307 1056.706177,1585.713745 1040.579468,1586.849243 
	C1018.238098,1588.422607 996.448242,1585.316406 975.395996,1577.068481 
	C955.876526,1569.421021 938.894409,1557.916382 924.204712,1543.333008 
	C916.496765,1535.680908 910.078979,1526.528687 904.077820,1517.397095 
	C888.992371,1494.442505 881.943787,1468.752319 881.202393,1441.500610 
	C880.937012,1431.746582 882.502991,1421.849487 884.084290,1412.156494 
	C888.509216,1385.033203 900.604858,1361.413208 918.681580,1340.943237 
	C931.623962,1326.287231 946.983948,1314.564209 964.692627,1306.043945 
	C967.836792,1304.531250 970.807861,1302.658813 973.978943,1300.030029 
z"/>
<path fill="#F05133" opacity="1.000000" stroke="none" 
	d="
M973.858887,1300.952515 
	C970.807861,1302.658813 967.836792,1304.531250 964.692627,1306.043945 
	C946.983948,1314.564209 931.623962,1326.287231 918.681580,1340.943237 
	C900.604858,1361.413208 888.509216,1385.033203 884.084290,1412.156494 
	C882.502991,1421.849487 880.937012,1431.746582 881.202393,1441.500610 
	C881.943787,1468.752319 888.992371,1494.442505 904.077820,1517.397095 
	C910.078979,1526.528687 916.496765,1535.680908 924.204712,1543.333008 
	C938.894409,1557.916382 955.876526,1569.421021 975.395996,1577.068481 
	C996.448242,1585.316406 1018.238098,1588.422607 1040.579468,1586.849243 
	C1056.706177,1585.713745 1072.300537,1581.789307 1087.358643,1575.418091 
	C1108.214478,1566.593628 1125.802124,1553.432983 1140.668945,1536.682617 
	C1156.500244,1518.845825 1167.745239,1498.302856 1172.863281,1474.879395 
	C1175.017334,1465.020752 1176.098267,1454.868652 1176.916260,1444.789062 
	C1178.762817,1422.038086 1173.921265,1400.424683 1164.948364,1379.574585 
	C1156.500977,1359.945557 1144.145264,1343.029785 1128.218628,1329.065186 
	C1119.334106,1321.275024 1108.960815,1315.133911 1098.990356,1308.662720 
	C1096.221802,1306.865845 1094.909302,1305.425415 1094.912598,1301.963623 
	C1095.018555,1189.134155 1095.000000,1076.304565 1095.000000,963.475037 
	C1095.000000,903.477051 1095.000000,843.479004 1095.000000,783.481018 
	C1095.000000,781.731140 1095.000000,779.981201 1095.000000,776.726135 
	C1097.452881,779.049133 1098.851196,780.311951 1100.181885,781.642273 
	C1164.296509,845.743225 1228.376465,909.879089 1292.599243,973.871582 
	C1295.848022,977.108826 1296.311401,979.814758 1294.718262,983.808838 
	C1287.710815,1001.375183 1284.544312,1019.732666 1285.099121,1038.566406 
	C1285.656250,1057.481323 1289.657104,1075.761108 1297.017334,1093.300171 
	C1304.139282,1110.271240 1314.332397,1125.244751 1327.018188,1138.342407 
	C1347.661743,1159.656006 1372.764648,1173.448608 1401.748169,1179.966431 
	C1417.985718,1183.617920 1434.371094,1183.815674 1450.908203,1182.088379 
	C1468.511963,1180.249512 1485.026489,1175.101685 1500.663208,1167.036987 
	C1526.236694,1153.847290 1546.321289,1134.775635 1560.982056,1110.013062 
	C1571.339355,1092.518799 1577.970581,1073.778198 1580.055420,1053.469971 
	C1582.158813,1032.981934 1581.275635,1012.866028 1575.173096,992.949036 
	C1570.140381,976.523621 1562.726685,961.359924 1552.723389,947.618652 
	C1540.825439,931.274658 1525.943604,918.003235 1508.402466,907.654114 
	C1493.046509,898.594360 1476.602539,892.476440 1459.243164,889.297974 
	C1440.521362,885.869995 1421.624756,886.019653 1402.966797,890.572754 
	C1397.917847,891.804871 1392.952515,893.401550 1387.873535,894.475220 
	C1386.385986,894.789673 1384.546509,894.094971 1383.043945,893.452271 
	C1382.051636,893.027832 1381.376709,891.866821 1380.552612,891.042786 
	C1311.846558,822.338989 1243.192383,753.583191 1174.303711,685.063171 
	C1170.150757,680.932434 1169.405273,677.373413 1171.207642,672.408142 
	C1177.711060,654.492920 1178.184570,635.755249 1176.759521,617.222534 
	C1174.668335,590.026062 1164.885132,565.118469 1148.533813,543.331848 
	C1128.186890,516.221497 1101.716675,497.589844 1068.611938,488.691925 
	C1055.527710,485.175079 1042.318848,483.002136 1028.863647,483.115875 
	C1014.432678,483.237854 1000.149597,485.247955 986.419617,489.974609 
	C982.978027,491.159393 980.891602,490.543182 978.289246,487.928192 
	C936.201965,445.637604 893.982117,403.478912 851.792114,361.290588 
	C821.858337,331.358032 791.928101,301.421875 761.976807,271.506866 
	C760.682373,270.214020 759.192200,269.117096 757.303772,267.513184 
	C759.314697,265.774719 760.917480,264.555695 762.328796,263.145081 
	C819.971191,205.532928 877.611572,147.918823 935.213562,90.266243 
	C951.087219,74.378670 970.003540,63.383743 991.661072,58.363968 
	C1023.489258,50.986835 1054.706543,53.595795 1083.552490,70.108192 
	C1093.106445,75.577171 1102.414551,82.207176 1110.179932,89.963387 
	C1394.714111,374.159607 1679.087158,658.517151 1963.310791,943.023926 
	C1976.492065,956.218262 1984.542725,972.824341 1990.216431,990.746460 
	C1995.372925,1007.034485 1996.080811,1023.644775 1994.741943,1040.172729 
	C1992.936646,1062.458618 1985.129395,1083.050049 1971.403320,1100.936401 
	C1965.896118,1108.112549 1959.636108,1114.778198 1953.229492,1121.187012 
	C1673.036621,1401.475464 1392.822998,1681.743164 1112.462524,1961.863647 
	C1095.813110,1978.498657 1075.126099,1988.311768 1051.990723,1993.086426 
	C1039.163818,1995.733521 1026.190186,1995.996582 1013.408997,1994.777954 
	C989.561584,1992.504150 968.014160,1983.604370 949.173889,1968.613159 
	C945.559875,1965.737427 942.131897,1962.590454 938.863831,1959.322754 
	C655.418701,1675.922974 371.975464,1392.521240 88.631142,1109.020508 
	C71.677795,1092.057861 61.238770,1071.316528 57.047226,1047.640503 
	C55.652664,1039.763062 53.935226,1031.717651 54.218719,1023.815552 
	C54.798641,1007.650574 56.881393,991.626282 63.175217,976.397644 
	C70.839134,957.853943 82.753181,942.575134 96.872643,928.472656 
	C287.546112,738.028442 478.067474,547.431946 668.621948,356.868622 
	C669.799377,355.691132 670.913025,354.449890 672.836792,352.411743 
	C673.922974,353.834045 674.751892,355.218750 675.858521,356.325897 
	C747.019409,427.524323 818.180176,498.722961 889.461426,569.800781 
	C892.541931,572.872437 892.392456,575.135315 891.192078,579.022461 
	C887.987976,589.398865 885.232239,599.962830 883.145935,610.618225 
	C881.701782,617.993591 880.860474,625.676208 881.154358,633.166443 
	C881.960571,653.712891 885.899719,673.580200 894.693359,692.471375 
	C902.457764,709.151489 912.561462,724.087463 925.572144,736.910217 
	C939.454712,750.592102 955.529175,761.232483 973.608032,769.178955 
	C973.317017,771.715637 973.020203,773.530396 973.019958,775.345093 
	C972.998901,948.427185 972.997131,1121.509277 973.035767,1294.591431 
	C973.036255,1296.711792 973.572693,1298.832153 973.858887,1300.952515 
z"/>
<path fill="#FF6633" opacity="1.000000" stroke="none" 
	d="
M973.918945,1300.491211 
	C973.572693,1298.832153 973.036255,1296.711792 973.035767,1294.591431 
	C972.997131,1121.509277 972.998901,948.427185 973.019958,775.345093 
	C973.020203,773.530396 973.317017,771.715637 973.649963,769.549316 
	C973.883057,770.359741 973.992676,771.521790 973.992676,772.683899 
	C973.993225,948.465942 973.985962,1124.247925 973.918945,1300.491211 
z"/>
</svg>