<?xml version="1.0" standalone="no"?>
<!DOCTYPE svg PUBLIC "-//W3C//DTD SVG 20010904//EN"
 "http://www.w3.org/TR/2001/REC-SVG-20010904/DTD/svg10.dtd">
<svg version="1.0" xmlns="http://www.w3.org/2000/svg"
 viewBox="0 0 946.000000 768.000000"
 preserveAspectRatio="xMidYMid meet">

<g transform="translate(0.000000,768.000000) scale(0.100000,-0.100000)"
fill="#FFFFFF" stroke="none">
<path d="M4210 7039 c0 -29 29 -62 258 -293 262 -265 313 -327 385 -471 71
-142 107 -313 107 -506 0 -323 -116 -607 -396 -969 -104 -135 -467 -502 -631
-640 -62 -51 -111 -95 -109 -98 7 -6 84 34 206 108 140 86 641 336 840 421
558 236 976 383 1588 559 540 154 1142 296 1541 363 l132 22 -61 89 c-91 133
-148 201 -256 306 -286 277 -675 471 -1229 615 -256 67 -371 89 -835 166 -664
108 -1065 178 -1190 206 -163 36 -274 78 -316 120 l-34 34 0 -32z m323 -188
c56 -17 128 -37 159 -45 l56 -16 36 -108 c49 -150 86 -275 86 -293 0 -7 -20
16 -44 53 -96 145 -196 259 -334 376 -40 34 -70 62 -67 62 3 0 51 -13 108 -29z
m507 -120 c113 -21 239 -45 280 -52 41 -6 78 -15 82 -18 4 -4 -34 -31 -85 -61
-108 -64 -219 -146 -298 -218 l-56 -52 -42 128 c-23 70 -57 163 -76 207 -49
113 -51 118 -28 111 10 -3 110 -23 223 -45z m463 -161 c9 -36 21 -94 27 -130
13 -82 13 -310 1 -310 -6 0 -45 11 -88 24 -43 14 -150 45 -238 71 -88 25 -162
48 -164 51 -7 7 73 87 169 168 133 114 262 208 270 199 4 -4 15 -37 23 -73z
m248 36 c280 -49 519 -98 519 -106 0 -4 -55 -33 -122 -64 -153 -72 -294 -149
-421 -232 -54 -35 -99 -64 -101 -64 -2 0 -6 51 -9 113 -7 117 -31 236 -66 325
-12 29 -21 55 -21 57 0 9 21 6 221 -29z m604 -173 c-13 -89 -64 -228 -139
-378 -41 -83 -81 -158 -88 -169 -14 -18 -20 -15 -139 46 -68 36 -161 81 -206
99 -46 19 -83 37 -83 40 0 17 630 409 658 409 2 0 1 -21 -3 -47z m255 -17
c173 -50 387 -126 530 -189 l94 -41 -134 -33 c-278 -69 -566 -160 -797 -252
-29 -11 -53 -17 -53 -12 0 5 15 45 34 89 52 121 95 263 112 370 20 123 20 124
41 118 10 -3 88 -25 173 -50z m-1497 -296 c100 -26 337 -102 337 -110 0 -3
-60 -58 -132 -122 -73 -64 -170 -152 -216 -194 l-83 -78 7 115 c6 102 -8 344
-22 392 -7 22 8 22 109 -3z m2167 11 c0 -24 -485 -662 -588 -773 l-25 -27 -60
82 c-69 94 -194 226 -284 300 -35 28 -63 54 -63 58 0 20 571 236 845 319 176
54 175 54 175 41z m162 -59 c192 -117 413 -294 542 -433 l68 -74 -58 -6 c-33
-4 -111 -12 -174 -18 -227 -23 -727 -111 -993 -175 l-58 -14 124 128 c197 203
292 333 398 543 27 53 55 97 62 97 6 0 47 -22 89 -48z m-1653 -210 c96 -48
176 -91 178 -97 1 -5 -59 -41 -134 -80 -75 -38 -199 -107 -275 -152 -76 -45
-138 -80 -138 -79 0 2 22 50 49 107 45 96 109 278 126 357 4 17 10 32 13 32 4
0 85 -39 181 -88z m-289 45 c0 -53 -98 -310 -165 -432 -73 -133 -63 -128 -134
-63 -33 31 -83 69 -111 85 -27 15 -50 31 -50 35 0 16 433 387 453 388 4 0 7
-6 7 -13z m752 -318 c130 -93 199 -149 280 -228 l58 -55 -203 -58 c-155 -45
-768 -245 -872 -284 -9 -4 62 72 157 167 172 172 285 304 394 459 31 44 59 80
64 80 5 0 59 -36 122 -81z m-298 29 c-39 -69 -249 -343 -419 -548 l-120 -145
-7 50 c-20 126 -32 175 -59 239 -23 54 -27 71 -17 78 81 54 602 337 621 338 5
0 5 -6 1 -12z m-913 -261 c69 -42 108 -70 109 -79 0 -3 -33 -30 -72 -59 -40
-29 -121 -90 -180 -136 -60 -46 -108 -81 -108 -79 0 2 21 40 46 83 45 74 80
151 118 256 10 26 21 47 25 47 4 0 32 -15 62 -33z m239 -227 c29 -46 80 -181
80 -214 0 -8 -70 -41 -172 -81 -182 -72 -347 -142 -513 -219 -84 -39 -95 -42
-65 -18 19 15 79 63 134 106 151 120 282 242 391 365 54 61 101 111 105 111 4
0 22 -23 40 -50z m-246 -76 c-132 -146 -295 -287 -464 -403 -134 -91 -142 -92
-61 -3 40 45 96 111 125 146 28 36 71 80 96 99 85 65 373 257 378 252 3 -2
-30 -43 -74 -91z"/>
<path d="M2772 2610 c-39 -24 -62 -73 -62 -130 0 -38 -2 -40 -30 -40 -25 0
-30 -4 -30 -25 0 -21 5 -25 30 -25 l30 0 0 -160 0 -160 30 0 30 0 0 160 0 160
45 0 c41 0 45 2 45 25 0 23 -4 25 -46 25 l-46 0 4 56 c6 65 26 88 71 81 25 -3
28 -1 25 22 -4 34 -50 40 -96 11z"/>
<path d="M774 2596 c-10 -27 1 -51 26 -54 31 -5 53 23 39 49 -12 22 -57 25
-65 5z"/>
<path d="M5920 2600 c0 -5 9 -10 20 -10 18 0 20 -7 20 -65 0 -37 4 -65 10 -65
6 0 10 28 10 65 0 58 2 65 20 65 11 0 20 5 20 10 0 6 -22 10 -50 10 -27 0 -50
-4 -50 -10z"/>
<path d="M6052 2533 l1 -78 6 60 6 60 25 -57 c14 -32 28 -58 31 -58 4 0 18 26
32 58 l26 57 0 -57 c1 -32 6 -58 11 -58 13 0 13 137 0 145 -6 4 -23 -21 -40
-57 l-29 -63 -27 63 c-15 34 -31 62 -36 62 -4 0 -7 -35 -6 -77z"/>
<path d="M110 2330 l0 -260 30 0 30 0 1 223 c0 122 3 215 6 207 2 -8 46 -108
96 -222 63 -142 97 -208 108 -208 10 0 43 64 106 208 50 114 93 214 96 222 3
8 6 -85 6 -207 l1 -223 30 0 30 0 0 261 0 260 -41 -3 -41 -3 -89 -198 c-49
-108 -89 -202 -89 -207 0 -17 -17 -11 -22 8 -3 9 -43 104 -89 210 l-84 192
-42 0 -43 0 0 -260z"/>
<path d="M2983 2540 c-19 -8 -23 -17 -23 -55 0 -45 0 -45 -35 -45 -31 0 -35
-3 -35 -25 0 -22 4 -25 35 -25 l35 0 0 -130 c0 -73 5 -140 11 -153 25 -56 139
-66 139 -13 0 19 -4 22 -30 18 -54 -8 -60 6 -60 149 l0 129 45 0 c41 0 45 2
45 25 0 23 -4 25 -45 25 l-45 0 0 55 c0 58 -1 59 -37 45z"/>
<path d="M3215 2509 c-60 -35 -75 -116 -29 -162 34 -34 73 -42 118 -23 67 28
82 121 26 171 -23 21 -89 29 -115 14z m104 -25 c26 -21 31 -33 31 -68 0 -57
-34 -91 -92 -91 -82 0 -118 96 -59 156 37 37 79 38 120 3z"/>
<path d="M3220 2415 c0 -37 4 -65 10 -65 6 0 10 14 10 30 0 17 4 30 10 30 5 0
16 -13 25 -30 9 -16 20 -30 25 -30 10 0 3 27 -13 47 -6 8 -4 18 7 28 9 9 16
20 16 24 0 17 -26 31 -57 31 l-33 0 0 -65z m67 39 c6 -16 -12 -34 -34 -34 -7
0 -13 11 -13 25 0 18 5 25 20 25 11 0 23 -7 27 -16z"/>
<path d="M1032 2429 c-26 -13 -55 -39 -70 -62 -23 -35 -27 -51 -27 -117 0 -65
4 -82 25 -113 36 -54 98 -81 167 -74 62 7 83 20 83 53 0 22 -1 23 -35 8 -96
-40 -185 20 -185 123 0 116 97 186 190 138 l30 -16 0 31 c0 24 -6 33 -26 40
-42 16 -106 11 -152 -11z"/>
<path d="M1424 2440 c-12 -4 -31 -21 -43 -36 l-21 -27 0 32 c0 28 -3 31 -30
31 l-30 0 0 -185 0 -185 30 0 30 0 0 124 c0 112 2 126 23 157 19 29 30 35 65
37 40 3 43 5 40 30 -3 29 -27 38 -64 22z"/>
<path d="M1625 2432 c-70 -33 -104 -93 -104 -182 -1 -144 133 -231 265 -171
125 57 137 259 22 344 -39 29 -131 34 -183 9z m166 -70 c51 -57 47 -172 -7
-223 -37 -34 -121 -35 -158 0 -70 66 -56 206 25 249 41 22 109 9 140 -26z"/>
<path d="M2024 2436 c-42 -18 -64 -52 -64 -97 0 -48 22 -73 95 -112 50 -27 61
-37 63 -62 3 -19 -2 -33 -14 -42 -24 -17 -78 -16 -114 2 l-30 16 0 -31 c0 -35
26 -50 86 -50 77 0 134 46 134 108 0 49 -15 69 -73 98 -29 15 -60 33 -69 42
-25 22 -23 69 3 83 21 11 76 8 112 -6 14 -6 17 -2 17 19 0 19 -7 29 -26 36
-35 14 -83 12 -120 -4z"/>
<path d="M2339 2427 c-75 -40 -109 -128 -88 -226 13 -62 40 -98 93 -122 77
-35 177 -14 224 46 48 61 54 183 11 251 -44 71 -156 95 -240 51z m152 -44 c80
-47 75 -224 -7 -261 -59 -28 -132 -4 -161 51 -21 41 -21 122 1 165 30 58 108
79 167 45z"/>
<path d="M780 2255 l0 -185 30 0 30 0 0 185 0 185 -30 0 -30 0 0 -185z"/>
<path d="M426 1920 c-71 -13 -143 -38 -185 -64 -154 -98 -223 -311 -150 -463
38 -80 166 -198 316 -292 245 -153 314 -243 282 -373 -16 -69 -77 -131 -150
-152 -107 -32 -226 -15 -375 54 -48 22 -91 40 -95 40 -12 0 -12 -197 0 -204 5
-3 51 -17 102 -32 137 -37 279 -43 388 -15 138 34 238 107 288 210 25 51 28
66 28 161 -1 90 -4 112 -24 154 -36 73 -123 159 -230 230 -53 35 -128 84 -166
109 -151 98 -209 170 -207 258 4 208 236 287 512 176 l61 -25 -3 97 -3 96 -70
18 c-82 21 -249 30 -319 17z"/>
<path d="M1625 1919 c-239 -32 -411 -151 -509 -350 -55 -113 -75 -183 -85
-309 -14 -181 17 -376 80 -504 92 -185 231 -286 470 -343 104 -25 115 -30 164
-75 29 -26 97 -100 151 -163 l97 -115 125 0 124 0 -164 171 c-89 94 -164 174
-166 179 -2 4 34 22 80 40 158 59 255 154 343 335 69 142 79 192 79 395 -1
192 -17 270 -86 410 -76 155 -220 271 -392 315 -78 19 -223 26 -311 14z m226
-163 c146 -31 244 -107 309 -240 56 -116 74 -214 68 -390 -4 -119 -9 -153 -32
-221 -69 -202 -196 -306 -409 -336 -161 -22 -285 14 -390 114 -146 141 -206
335 -179 579 18 165 66 271 167 373 116 115 284 159 466 121z"/>
<path d="M4224 1919 c-234 -27 -386 -182 -387 -395 -1 -155 102 -277 377 -445
110 -67 208 -156 237 -215 31 -64 24 -148 -17 -206 -43 -62 -109 -92 -210 -96
-99 -5 -174 13 -292 68 -46 22 -86 40 -87 40 -7 0 -14 -141 -9 -172 6 -34 9
-37 68 -53 167 -48 319 -59 431 -30 134 35 244 116 287 212 43 98 40 240 -6
332 -37 71 -137 159 -314 275 -267 174 -313 240 -266 379 17 49 74 110 122
128 103 41 258 24 425 -46 15 -6 17 1 17 89 l0 95 -37 10 c-119 32 -235 42
-339 30z"/>
<path d="M2650 1170 l0 -740 390 0 390 0 0 90 0 90 -300 0 -300 0 0 650 0 650
-90 0 -90 0 0 -740z"/>
<path d="M5170 1499 c-172 -34 -320 -176 -376 -364 -23 -73 -25 -281 -5 -365
44 -180 187 -316 380 -360 103 -24 271 1 409 60 l52 22 0 79 c0 44 -2 79 -5
79 -3 0 -27 -11 -53 -24 -162 -82 -327 -98 -437 -41 -91 47 -162 154 -181 275
l-7 40 373 0 373 0 -6 128 c-6 144 -28 230 -77 304 -92 139 -259 202 -440 167z
m195 -177 c22 -11 50 -31 62 -44 31 -33 72 -126 79 -181 l7 -47 -277 0 -276 0
6 28 c13 51 45 127 71 165 67 96 221 134 328 79z"/>
<path d="M7851 1495 c-130 -37 -242 -131 -304 -257 -50 -101 -60 -153 -59
-295 1 -189 38 -297 133 -393 84 -84 242 -149 362 -150 67 0 188 27 280 62
l77 29 0 80 c0 43 -4 79 -9 79 -5 0 -42 -16 -82 -35 -277 -132 -496 -54 -573
204 -30 100 -67 91 354 91 l370 0 0 98 c0 53 -7 127 -15 165 -29 140 -126 263
-243 308 -74 29 -214 35 -291 14z m192 -156 c21 -6 56 -27 78 -46 56 -51 75
-91 103 -215 l6 -28 -279 0 -279 0 10 43 c15 67 70 168 109 199 67 54 164 72
252 47z"/>
<path d="M9238 1491 c-39 -31 -53 -80 -34 -124 15 -36 48 -62 69 -53 7 2 6 5
-4 5 -28 2 -59 45 -59 83 0 50 8 66 41 83 43 23 77 18 110 -14 46 -47 38 -115
-19 -145 -18 -10 -21 -15 -10 -16 29 0 68 57 68 100 0 55 -33 91 -90 97 -36 4
-51 1 -72 -16z"/>
<path d="M6242 1481 c-59 -20 -110 -64 -153 -130 l-29 -45 0 87 0 87 -95 0
-95 0 0 -525 0 -525 94 0 95 0 3 338 3 337 31 65 c60 127 130 177 232 167 32
-3 67 -9 80 -13 22 -6 22 -5 22 85 l0 91 -67 0 c-39 -1 -91 -8 -121 -19z"/>
<path d="M8957 1486 c-62 -23 -106 -58 -147 -120 l-40 -58 0 86 0 86 -95 0
-95 0 2 -522 3 -523 92 -3 91 -3 4 338 3 338 28 60 c38 81 70 120 123 151 40
24 53 26 112 21 37 -2 75 -8 85 -12 15 -6 17 1 17 84 l0 91 -72 0 c-40 -1 -90
-7 -111 -14z"/>
<path d="M6490 1476 c0 -13 246 -675 353 -951 l35 -90 89 -3 89 -3 202 508
c110 279 204 516 208 526 6 15 -2 17 -84 17 -76 0 -91 -3 -97 -17 -4 -10 -49
-130 -100 -268 -156 -421 -209 -555 -216 -542 -12 22 -185 508 -239 670 l-52
157 -94 0 c-52 0 -94 -2 -94 -4z"/>
<path d="M9260 1404 c0 -41 4 -63 10 -59 6 3 10 17 10 31 0 33 16 30 35 -6 9
-16 20 -30 26 -30 5 0 3 13 -6 30 -12 23 -13 34 -4 49 19 30 4 51 -36 51 l-35
0 0 -66z m55 31 c0 -11 -8 -21 -17 -23 -14 -3 -18 3 -18 23 0 20 4 26 18 23 9
-2 17 -12 17 -23z"/>
</g>
</svg>
